<?xml version="1.0" encoding="UTF-8"?>
<svg width="1236px" height="660px" viewBox="0 0 1236 660" version="1.1" xmlns="http://www.w3.org/2000/svg" xmlns:xlink="http://www.w3.org/1999/xlink">
    <!-- Generator: Sketch 49.3 (51167) - http://www.bohemiancoding.com/sketch -->
    <title>Group 10</title>
    <desc>Created with Sketch.</desc>
    <defs></defs>
    <g id="Page-1" stroke="none" stroke-width="1" fill="none" fill-rule="evenodd">
        <g id="Landing" transform="translate(-118.000000, -5106.000000)" fill="#A9CBFF">
            <g id="Group-10" transform="translate(118.000000, 5106.000000)">
                <g id="Group-2" transform="translate(51.000000, 51.000000)">
                    <circle id="Oval" opacity="0.25" cx="67.5" cy="67.5" r="67.5"></circle>
                    <circle id="Oval" opacity="0.5" cx="67.5" cy="67.5" r="48.75"></circle>
                    <circle id="Oval" cx="67.5" cy="67.5" r="30"></circle>
                </g>
                <g id="Group-2" transform="translate(949.000000, 347.000000)">
                    <circle id="Oval" opacity="0.25" cx="67.5" cy="67.5" r="67.5"></circle>
                    <circle id="Oval" opacity="0.5" cx="67.5" cy="67.5" r="48.75"></circle>
                    <circle id="Oval" cx="67.5" cy="67.5" r="30"></circle>
                </g>
                <g id="Group-2" transform="translate(149.000000, 311.000000)">
                    <circle id="Oval" opacity="0.25" cx="50.5" cy="50.5" r="50.5"></circle>
                    <circle id="Oval" opacity="0.5" cx="50.5" cy="50.5" r="36.4722222"></circle>
                    <circle id="Oval" cx="50.5" cy="50.5" r="22.4444444"></circle>
                </g>
                <g id="Group-2" transform="translate(51.000000, 533.000000)">
                    <circle id="Oval" opacity="0.25" cx="25.5" cy="25.5" r="25.5"></circle>
                    <circle id="Oval" opacity="0.5" cx="25.5" cy="25.5" r="18.4166667"></circle>
                    <circle id="Oval" cx="25.5" cy="25.5" r="11.3333333"></circle>
                </g>
                <g id="Group-2" transform="translate(447.000000, 386.000000)">
                    <circle id="Oval" opacity="0.25" cx="25.5" cy="25.5" r="25.5"></circle>
                    <circle id="Oval" opacity="0.5" cx="25.5" cy="25.5" r="18.4166667"></circle>
                    <circle id="Oval" cx="25.5" cy="25.5" r="11.3333333"></circle>
                </g>
                <g id="Group-2" transform="translate(756.000000, 386.000000)">
                    <circle id="Oval" opacity="0.25" cx="25.5" cy="25.5" r="25.5"></circle>
                    <circle id="Oval" opacity="0.5" cx="25.5" cy="25.5" r="18.4166667"></circle>
                    <circle id="Oval" cx="25.5" cy="25.5" r="11.3333333"></circle>
                </g>
                <g id="Group-2" transform="translate(782.000000, 42.000000)">
                    <circle id="Oval" opacity="0.25" cx="25.5" cy="25.5" r="25.5"></circle>
                    <circle id="Oval" opacity="0.5" cx="25.5" cy="25.5" r="18.4166667"></circle>
                    <circle id="Oval" cx="25.5" cy="25.5" r="11.3333333"></circle>
                </g>
                <g id="Group-2" transform="translate(311.000000, 0.000000)">
                    <circle id="Oval" opacity="0.25" cx="25.5" cy="25.5" r="25.5"></circle>
                    <circle id="Oval" opacity="0.5" cx="25.5" cy="25.5" r="18.4166667"></circle>
                    <circle id="Oval" cx="25.5" cy="25.5" r="11.3333333"></circle>
                </g>
                <g id="Group-2" transform="translate(1185.000000, 247.000000)">
                    <circle id="Oval" opacity="0.25" cx="25.5" cy="25.5" r="25.5"></circle>
                    <circle id="Oval" opacity="0.5" cx="25.5" cy="25.5" r="18.4166667"></circle>
                    <circle id="Oval" cx="25.5" cy="25.5" r="11.3333333"></circle>
                </g>
                <g id="Group-2" transform="translate(447.000000, 559.000000)">
                    <circle id="Oval" opacity="0.25" cx="25.5" cy="25.5" r="25.5"></circle>
                    <circle id="Oval" opacity="0.5" cx="25.5" cy="25.5" r="18.4166667"></circle>
                </g>
                <g id="Group-2" transform="translate(602.000000, 482.000000)">
                    <circle id="Oval" opacity="0.25" cx="50.5" cy="50.5" r="50.5"></circle>
                    <circle id="Oval" opacity="0.5" cx="50.5" cy="50.5" r="36.4722222"></circle>
                    <circle id="Oval" cx="50.5" cy="50.5" r="22.4444444"></circle>
                </g>
                <g id="Group-2" transform="translate(980.000000, 17.000000)">
                    <circle id="Oval" opacity="0.25" cx="50.5" cy="50.5" r="50.5"></circle>
                    <circle id="Oval" opacity="0.5" cx="50.5" cy="50.5" r="36.4722222"></circle>
                    <circle id="Oval" cx="50.5" cy="50.5" r="22.4444444"></circle>
                </g>
                <g id="Group-2" transform="translate(927.000000, 559.000000)">
                    <circle id="Oval" opacity="0.25" cx="50.5" cy="50.5" r="50.5"></circle>
                    <circle id="Oval" opacity="0.5" cx="50.5" cy="50.5" r="36.4722222"></circle>
                    <circle id="Oval" cx="50.5" cy="50.5" r="22.4444444"></circle>
                </g>
                <circle id="Oval" cx="600.5" cy="395.5" r="5.5"></circle>
                <circle id="Oval" cx="1179.5" cy="527.5" r="5.5"></circle>
                <circle id="Oval" cx="5.5" cy="287.5" r="5.5"></circle>
                <circle id="Oval" cx="980.333333" cy="235.333333" r="11.3333333"></circle>
                <circle id="Oval" cx="871.5" cy="341.5" r="5.5"></circle>
                <circle id="Oval" cx="555.5" cy="589.5" r="5.5"></circle>
                <circle id="Oval" cx="282.5" cy="527.5" r="5.5"></circle>
                <circle id="Oval" cx="282.5" cy="135.5" r="5.5"></circle>
                <circle id="Oval" cx="618.5" cy="79.5" r="5.5"></circle>
                <circle id="Oval" cx="265.5" cy="298.5" r="5.5"></circle>
            </g>
        </g>
    </g>
</svg>